<svg width="18" height="18" viewBox="0 0 18 18" fill="none" xmlns="http://www.w3.org/2000/svg">
<path d="M17.5782 4.44321L13.5562 0.422033C13.4224 0.288283 13.2637 0.182184 13.0889 0.109797C12.9142 0.03741 12.7269 0.000152588 12.5378 0.000152588C12.3487 0.000152588 12.1614 0.03741 11.9867 0.109797C11.8119 0.182184 11.6532 0.288283 11.5195 0.422033L0.421617 11.5199C0.287319 11.6531 0.180844 11.8117 0.108382 11.9865C0.0359191 12.1612 -0.00108537 12.3486 -0.000480996 12.5378V16.5599C-0.000480996 16.9418 0.151232 17.308 0.421283 17.5781C0.691334 17.8481 1.0576 17.9999 1.43951 17.9999H16.5594C16.7504 17.9999 16.9335 17.924 17.0686 17.789C17.2036 17.6539 17.2794 17.4708 17.2794 17.2799C17.2794 17.0889 17.2036 16.9058 17.0686 16.7707C16.9335 16.6357 16.7504 16.5599 16.5594 16.5599H7.49829L17.5782 6.4799C17.712 6.34618 17.8181 6.18743 17.8905 6.0127C17.9629 5.83797 18.0001 5.65069 18.0001 5.46156C18.0001 5.27243 17.9629 5.08515 17.8905 4.91042C17.8181 4.73569 17.712 4.57693 17.5782 4.44321ZM5.46159 16.5599H1.43951V12.5378L9.35948 4.61781L13.3816 8.63989L5.46159 16.5599ZM14.3995 7.622L10.3783 3.59992L12.5383 1.43993L16.5594 5.46201L14.3995 7.622Z" fill="white"/>
</svg>
