<svg width="181" height="32" viewBox="0 0 181 32" fill="none" xmlns="http://www.w3.org/2000/svg">
<path d="M28.0001 16C28.0001 16.2652 27.8947 16.5196 27.7072 16.7071C27.5196 16.8946 27.2653 17 27.0001 17H16.0001C15.7349 17 15.4805 16.8946 15.293 16.7071C15.1054 16.5196 15.0001 16.2652 15.0001 16C15.0001 15.7348 15.1054 15.4804 15.293 15.2929C15.4805 15.1054 15.7349 15 16.0001 15H27.0001C27.2653 15 27.5196 15.1054 27.7072 15.2929C27.8947 15.4804 28.0001 15.7348 28.0001 16ZM16.0001 9H27.0001C27.2653 9 27.5196 8.89464 27.7072 8.70711C27.8947 8.51957 28.0001 8.26522 28.0001 8C28.0001 7.73478 27.8947 7.48043 27.7072 7.29289C27.5196 7.10536 27.2653 7 27.0001 7H16.0001C15.7349 7 15.4805 7.10536 15.293 7.29289C15.1054 7.48043 15.0001 7.73478 15.0001 8C15.0001 8.26522 15.1054 8.51957 15.293 8.70711C15.4805 8.89464 15.7349 9 16.0001 9ZM27.0001 23H16.0001C15.7349 23 15.4805 23.1054 15.293 23.2929C15.1054 23.4804 15.0001 23.7348 15.0001 24C15.0001 24.2652 15.1054 24.5196 15.293 24.7071C15.4805 24.8946 15.7349 25 16.0001 25H27.0001C27.2653 25 27.5196 24.8946 27.7072 24.7071C27.8947 24.5196 28.0001 24.2652 28.0001 24C28.0001 23.7348 27.8947 23.4804 27.7072 23.2929C27.5196 23.1054 27.2653 23 27.0001 23ZM10.2926 5.2925L7.00007 8.58625L5.70757 7.2925C5.51993 7.10486 5.26543 6.99944 5.00007 6.99944C4.7347 6.99944 4.48021 7.10486 4.29257 7.2925C4.10493 7.48014 3.99951 7.73464 3.99951 8C3.99951 8.26536 4.10493 8.51986 4.29257 8.7075L6.29257 10.7075C6.38544 10.8005 6.49573 10.8742 6.61713 10.9246C6.73853 10.9749 6.86865 11.0008 7.00007 11.0008C7.13148 11.0008 7.26161 10.9749 7.38301 10.9246C7.50441 10.8742 7.61469 10.8005 7.70757 10.7075L11.7076 6.7075C11.8952 6.51986 12.0006 6.26536 12.0006 6C12.0006 5.73464 11.8952 5.48014 11.7076 5.2925C11.5199 5.10486 11.2654 4.99944 11.0001 4.99944C10.7347 4.99944 10.4802 5.10486 10.2926 5.2925ZM10.2926 13.2925L7.00007 16.5862L5.70757 15.2925C5.51993 15.1049 5.26543 14.9994 5.00007 14.9994C4.7347 14.9994 4.48021 15.1049 4.29257 15.2925C4.10493 15.4801 3.99951 15.7346 3.99951 16C3.99951 16.1314 4.02539 16.2615 4.07567 16.3829C4.12596 16.5043 4.19966 16.6146 4.29257 16.7075L6.29257 18.7075C6.38544 18.8005 6.49573 18.8742 6.61713 18.9246C6.73853 18.9749 6.86865 19.0008 7.00007 19.0008C7.13148 19.0008 7.26161 18.9749 7.38301 18.9246C7.50441 18.8742 7.61469 18.8005 7.70757 18.7075L11.7076 14.7075C11.8952 14.5199 12.0006 14.2654 12.0006 14C12.0006 13.7346 11.8952 13.4801 11.7076 13.2925C11.5199 13.1049 11.2654 12.9994 11.0001 12.9994C10.7347 12.9994 10.4802 13.1049 10.2926 13.2925ZM10.2926 21.2925L7.00007 24.5863L5.70757 23.2925C5.61466 23.1996 5.50436 23.1259 5.38296 23.0756C5.26157 23.0253 5.13146 22.9994 5.00007 22.9994C4.86867 22.9994 4.73856 23.0253 4.61717 23.0756C4.49578 23.1259 4.38548 23.1996 4.29257 23.2925C4.19966 23.3854 4.12596 23.4957 4.07567 23.6171C4.02539 23.7385 3.99951 23.8686 3.99951 24C3.99951 24.1314 4.02539 24.2615 4.07567 24.3829C4.12596 24.5043 4.19966 24.6146 4.29257 24.7075L6.29257 26.7075C6.38544 26.8005 6.49573 26.8742 6.61713 26.9246C6.73853 26.9749 6.86865 27.0008 7.00007 27.0008C7.13148 27.0008 7.26161 26.9749 7.38301 26.9246C7.50441 26.8742 7.61469 26.8005 7.70757 26.7075L11.7076 22.7075C11.8952 22.5199 12.0006 22.2654 12.0006 22C12.0006 21.7346 11.8952 21.4801 11.7076 21.2925C11.5199 21.1049 11.2654 20.9994 11.0001 20.9994C10.7347 20.9994 10.4802 21.1049 10.2926 21.2925Z" fill="#BBD5ED"/>
<path d="M43.216 24.24C42.112 24.24 41.024 24.064 39.952 23.712C38.896 23.344 38 22.816 37.264 22.128L38.824 19.32C39.608 19.832 40.36 20.232 41.08 20.52C41.816 20.808 42.48 20.952 43.072 20.952C43.408 20.952 43.656 20.912 43.816 20.832C43.976 20.736 44.056 20.584 44.056 20.376C44.056 20.232 44 20.112 43.888 20.016C43.776 19.92 43.592 19.824 43.336 19.728C43.096 19.632 42.784 19.528 42.4 19.416C41.408 19.064 40.576 18.736 39.904 18.432C39.248 18.128 38.752 17.76 38.416 17.328C38.096 16.88 37.936 16.288 37.936 15.552C37.936 14.688 38.152 13.928 38.584 13.272C39.016 12.6 39.632 12.072 40.432 11.688C41.248 11.304 42.224 11.112 43.36 11.112C44.208 11.112 45.056 11.248 45.904 11.52C46.768 11.776 47.6 12.248 48.4 12.936L46.672 15.72C45.872 15.224 45.192 14.872 44.632 14.664C44.088 14.456 43.6 14.352 43.168 14.352C42.96 14.352 42.776 14.376 42.616 14.424C42.472 14.472 42.36 14.544 42.28 14.64C42.2 14.736 42.16 14.864 42.16 15.024C42.16 15.184 42.216 15.32 42.328 15.432C42.44 15.528 42.616 15.624 42.856 15.72C43.096 15.8 43.4 15.896 43.768 16.008C44.856 16.328 45.744 16.656 46.432 16.992C47.12 17.312 47.624 17.704 47.944 18.168C48.28 18.632 48.448 19.24 48.448 19.992C48.448 21.32 47.976 22.36 47.032 23.112C46.104 23.864 44.832 24.24 43.216 24.24ZM50.1754 24V11.376H54.7354V24H50.1754ZM50.1754 10.32V6.48H54.7354V10.32H50.1754ZM77.3946 24H72.8346V16.896C72.8346 16.272 72.7066 15.824 72.4506 15.552C72.2106 15.264 71.9146 15.12 71.5626 15.12C71.2106 15.12 70.8266 15.288 70.4106 15.624C69.9946 15.96 69.6906 16.392 69.4986 16.92V24H64.9386V16.896C64.9386 16.272 64.8106 15.824 64.5546 15.552C64.3146 15.264 64.0186 15.12 63.6666 15.12C63.3146 15.12 62.9306 15.288 62.5146 15.624C62.0986 15.96 61.7946 16.392 61.6026 16.92V24H57.0426V11.376H61.1466V13.248C61.5946 12.56 62.2106 12.04 62.9946 11.688C63.7786 11.32 64.7066 11.136 65.7786 11.136C66.8186 11.136 67.6026 11.36 68.1306 11.808C68.6586 12.256 69.0106 12.76 69.1866 13.32C69.6346 12.632 70.2506 12.096 71.0346 11.712C71.8186 11.328 72.6986 11.136 73.6746 11.136C74.5066 11.136 75.1706 11.288 75.6666 11.592C76.1626 11.896 76.5306 12.288 76.7706 12.768C77.0266 13.248 77.1946 13.752 77.2746 14.28C77.3546 14.792 77.3946 15.264 77.3946 15.696V24ZM88.1089 24.24C87.1969 24.24 86.4049 24.064 85.7329 23.712C85.0609 23.344 84.5409 22.816 84.1729 22.128V29.112H79.6129V11.376H83.5729V13.272C84.0209 12.584 84.5729 12.056 85.2289 11.688C85.9009 11.32 86.7089 11.136 87.6529 11.136C88.5009 11.136 89.2769 11.296 89.9809 11.616C90.6849 11.936 91.3009 12.392 91.8289 12.984C92.3569 13.576 92.7649 14.264 93.0529 15.048C93.3409 15.832 93.4849 16.696 93.4849 17.64C93.4849 18.904 93.2529 20.032 92.7889 21.024C92.3249 22.016 91.6849 22.8 90.8689 23.376C90.0689 23.952 89.1489 24.24 88.1089 24.24ZM86.5249 20.4C86.8609 20.4 87.1649 20.328 87.4369 20.184C87.7249 20.04 87.9729 19.84 88.1809 19.584C88.3889 19.328 88.5489 19.032 88.6609 18.696C88.7729 18.36 88.8289 18 88.8289 17.616C88.8289 17.216 88.7649 16.856 88.6369 16.536C88.5249 16.216 88.3569 15.944 88.1329 15.72C87.9089 15.48 87.6449 15.296 87.3409 15.168C87.0369 15.04 86.7009 14.976 86.3329 14.976C86.1249 14.976 85.9169 15.008 85.7089 15.072C85.5169 15.12 85.3329 15.2 85.1569 15.312C84.9809 15.408 84.8049 15.536 84.6289 15.696C84.4689 15.856 84.3169 16.048 84.1729 16.272V18.456C84.3169 18.824 84.5089 19.16 84.7489 19.464C85.0049 19.752 85.2849 19.984 85.5889 20.16C85.8929 20.32 86.2049 20.4 86.5249 20.4ZM95.056 6.48H99.616V18.984C99.616 19.448 99.712 19.808 99.904 20.064C100.112 20.304 100.408 20.424 100.792 20.424C100.984 20.424 101.192 20.392 101.416 20.328C101.64 20.264 101.848 20.176 102.04 20.064L102.616 23.424C102.072 23.68 101.456 23.88 100.768 24.024C100.096 24.168 99.456 24.24 98.848 24.24C97.632 24.24 96.696 23.928 96.04 23.304C95.384 22.664 95.056 21.76 95.056 20.592V6.48ZM109.899 24.24C108.795 24.24 107.811 24.072 106.947 23.736C106.083 23.384 105.355 22.912 104.763 22.32C104.187 21.728 103.747 21.048 103.443 20.28C103.139 19.512 102.987 18.704 102.987 17.856C102.987 16.64 103.251 15.528 103.779 14.52C104.307 13.496 105.083 12.68 106.107 12.072C107.131 11.448 108.395 11.136 109.899 11.136C111.403 11.136 112.667 11.44 113.691 12.048C114.715 12.656 115.491 13.456 116.019 14.448C116.547 15.44 116.811 16.52 116.811 17.688C116.811 17.928 116.795 18.176 116.763 18.432C116.747 18.672 116.723 18.888 116.691 19.08H107.835C107.867 19.528 107.987 19.896 108.195 20.184C108.419 20.456 108.691 20.656 109.011 20.784C109.347 20.912 109.691 20.976 110.043 20.976C110.539 20.976 111.003 20.864 111.435 20.64C111.883 20.416 112.179 20.104 112.323 19.704L116.187 20.808C115.851 21.48 115.379 22.072 114.771 22.584C114.179 23.096 113.475 23.504 112.659 23.808C111.843 24.096 110.923 24.24 109.899 24.24ZM107.739 16.344H111.915C111.867 15.928 111.747 15.576 111.555 15.288C111.379 15 111.139 14.776 110.835 14.616C110.547 14.456 110.211 14.376 109.827 14.376C109.443 14.376 109.099 14.456 108.795 14.616C108.507 14.776 108.267 15 108.075 15.288C107.899 15.576 107.787 15.928 107.739 16.344ZM124.956 23.4C124.828 23.448 124.628 23.536 124.356 23.664C124.084 23.792 123.756 23.904 123.372 24C122.988 24.096 122.572 24.144 122.124 24.144C121.66 24.144 121.22 24.056 120.804 23.88C120.404 23.704 120.084 23.44 119.844 23.088C119.604 22.72 119.484 22.272 119.484 21.744V12.792H117.756V11.496H119.484V7.272H121.116V11.496H123.996V12.792H121.116V21.288C121.148 21.736 121.308 22.072 121.596 22.296C121.9 22.52 122.244 22.632 122.628 22.632C123.076 22.632 123.484 22.56 123.852 22.416C124.22 22.256 124.444 22.144 124.524 22.08L124.956 23.4ZM132.112 24.24C131.216 24.24 130.384 24.072 129.616 23.736C128.864 23.384 128.208 22.912 127.648 22.32C127.104 21.712 126.68 21.024 126.376 20.256C126.072 19.472 125.92 18.648 125.92 17.784C125.92 16.888 126.072 16.056 126.376 15.288C126.68 14.504 127.112 13.816 127.672 13.224C128.232 12.616 128.888 12.144 129.64 11.808C130.408 11.456 131.24 11.28 132.136 11.28C133.032 11.28 133.856 11.456 134.608 11.808C135.36 12.144 136.016 12.616 136.576 13.224C137.136 13.816 137.568 14.504 137.872 15.288C138.176 16.056 138.328 16.888 138.328 17.784C138.328 18.648 138.176 19.472 137.872 20.256C137.568 21.024 137.136 21.712 136.576 22.32C136.032 22.912 135.376 23.384 134.608 23.736C133.856 24.072 133.024 24.24 132.112 24.24ZM127.576 17.808C127.576 18.736 127.776 19.584 128.176 20.352C128.592 21.104 129.144 21.704 129.832 22.152C130.52 22.584 131.28 22.8 132.112 22.8C132.944 22.8 133.704 22.576 134.392 22.128C135.08 21.68 135.632 21.072 136.048 20.304C136.464 19.52 136.672 18.672 136.672 17.76C136.672 16.832 136.464 15.984 136.048 15.216C135.632 14.448 135.08 13.84 134.392 13.392C133.704 12.944 132.944 12.72 132.112 12.72C131.28 12.72 130.52 12.952 129.832 13.416C129.16 13.88 128.616 14.496 128.2 15.264C127.784 16.016 127.576 16.864 127.576 17.808ZM140.218 17.784C140.218 16.6 140.458 15.52 140.938 14.544C141.434 13.552 142.114 12.76 142.978 12.168C143.842 11.576 144.826 11.28 145.93 11.28C146.97 11.28 147.898 11.56 148.714 12.12C149.546 12.664 150.194 13.328 150.658 14.112V6.48H152.29V22.032C152.29 22.256 152.338 22.424 152.434 22.536C152.53 22.632 152.674 22.688 152.866 22.704V24C152.546 24.048 152.298 24.064 152.122 24.048C151.786 24.032 151.49 23.896 151.234 23.64C150.978 23.384 150.85 23.104 150.85 22.8V21.576C150.354 22.392 149.682 23.04 148.834 23.52C147.986 24 147.106 24.24 146.194 24.24C145.33 24.24 144.53 24.064 143.794 23.712C143.074 23.36 142.442 22.88 141.898 22.272C141.37 21.664 140.954 20.976 140.65 20.208C140.362 19.424 140.218 18.616 140.218 17.784ZM150.658 19.704V15.84C150.45 15.264 150.114 14.744 149.65 14.28C149.186 13.8 148.658 13.424 148.066 13.152C147.49 12.864 146.914 12.72 146.338 12.72C145.666 12.72 145.058 12.864 144.514 13.152C143.97 13.424 143.498 13.8 143.098 14.28C142.714 14.76 142.418 15.304 142.21 15.912C142.002 16.52 141.898 17.144 141.898 17.784C141.898 18.456 142.01 19.096 142.234 19.704C142.474 20.312 142.81 20.856 143.242 21.336C143.674 21.8 144.17 22.16 144.73 22.416C145.29 22.672 145.898 22.8 146.554 22.8C146.97 22.8 147.402 22.72 147.85 22.56C148.298 22.4 148.722 22.184 149.122 21.912C149.538 21.624 149.882 21.288 150.154 20.904C150.426 20.52 150.594 20.12 150.658 19.704ZM161.316 24.24C160.42 24.24 159.588 24.072 158.82 23.736C158.068 23.384 157.412 22.912 156.852 22.32C156.308 21.712 155.884 21.024 155.58 20.256C155.276 19.472 155.124 18.648 155.124 17.784C155.124 16.888 155.276 16.056 155.58 15.288C155.884 14.504 156.316 13.816 156.876 13.224C157.436 12.616 158.092 12.144 158.844 11.808C159.612 11.456 160.444 11.28 161.34 11.28C162.236 11.28 163.06 11.456 163.812 11.808C164.564 12.144 165.22 12.616 165.78 13.224C166.34 13.816 166.772 14.504 167.076 15.288C167.38 16.056 167.532 16.888 167.532 17.784C167.532 18.648 167.38 19.472 167.076 20.256C166.772 21.024 166.34 21.712 165.78 22.32C165.236 22.912 164.58 23.384 163.812 23.736C163.06 24.072 162.228 24.24 161.316 24.24ZM156.78 17.808C156.78 18.736 156.98 19.584 157.38 20.352C157.796 21.104 158.348 21.704 159.036 22.152C159.724 22.584 160.484 22.8 161.316 22.8C162.148 22.8 162.908 22.576 163.596 22.128C164.284 21.68 164.836 21.072 165.252 20.304C165.668 19.52 165.876 18.672 165.876 17.76C165.876 16.832 165.668 15.984 165.252 15.216C164.836 14.448 164.284 13.84 163.596 13.392C162.908 12.944 162.148 12.72 161.316 12.72C160.484 12.72 159.724 12.952 159.036 13.416C158.364 13.88 157.82 14.496 157.404 15.264C156.988 16.016 156.78 16.864 156.78 17.808ZM174.365 24.24C173.341 24.24 172.389 24.072 171.509 23.736C170.629 23.4 169.869 22.888 169.229 22.2L169.901 21.048C170.605 21.704 171.309 22.184 172.013 22.488C172.733 22.776 173.493 22.92 174.293 22.92C175.269 22.92 176.061 22.728 176.669 22.344C177.277 21.944 177.581 21.376 177.581 20.64C177.581 20.144 177.429 19.768 177.125 19.512C176.837 19.24 176.413 19.024 175.853 18.864C175.309 18.688 174.653 18.504 173.885 18.312C173.021 18.072 172.293 17.824 171.701 17.568C171.125 17.296 170.685 16.96 170.381 16.56C170.093 16.144 169.949 15.608 169.949 14.952C169.949 14.136 170.149 13.464 170.549 12.936C170.965 12.392 171.525 11.984 172.229 11.712C172.949 11.424 173.749 11.28 174.629 11.28C175.589 11.28 176.437 11.432 177.173 11.736C177.909 12.04 178.509 12.464 178.973 13.008L178.181 14.112C177.733 13.6 177.197 13.224 176.573 12.984C175.965 12.728 175.285 12.6 174.533 12.6C174.021 12.6 173.533 12.672 173.069 12.816C172.605 12.944 172.221 13.168 171.917 13.488C171.629 13.792 171.485 14.216 171.485 14.76C171.485 15.208 171.597 15.56 171.821 15.816C172.045 16.056 172.381 16.264 172.829 16.44C173.277 16.6 173.829 16.776 174.485 16.968C175.429 17.224 176.253 17.488 176.957 17.76C177.661 18.016 178.205 18.352 178.589 18.768C178.973 19.184 179.165 19.768 179.165 20.52C179.165 21.688 178.725 22.6 177.845 23.256C176.965 23.912 175.805 24.24 174.365 24.24Z" fill="#BBD5ED"/>
</svg>
